<svg width="19" height="22" viewBox="0 0 19 22" fill="none" xmlns="http://www.w3.org/2000/svg">
<path d="M17.5347 0.587643C16.7301 0.775289 15.9218 0.963814 15.6212 1.48041L13.2941 6.0289L0.799189 8.94313L0.292949 10.3964L9.85436 11.2834L8.23212 15.221L4.60602 16.0668L3.69562 17.6143L6.31157 17.893L6.60988 19.1587C6.74352 19.6074 7.21259 19.9069 7.61297 19.8135L8.82167 19.5316L10.2228 21.8753L11.1332 20.3277L10.2383 16.5307L12.8637 13.2479L17.8731 21.8728L18.8832 20.7484L15.8005 7.66838L18.6314 3.44883C18.9358 2.93136 18.7373 2.08889 18.5378 1.24247C18.439 0.82321 17.9351 0.494262 17.5347 0.587643Z" fill="#1D2E5B"/>
</svg>
