<svg width="200" height="50" viewBox="0 0 200 50" fill="none" xmlns="http://www.w3.org/2000/svg">
<path d="M93.9956 12.6434L53.899 50L39.2637 2.10888L93.9956 12.6434Z" fill="#4D99D6"/>
<ellipse cx="94.7273" cy="33.8974" rx="4.353" ry="4.25194" fill="#88BFEB"/>
<ellipse cx="111.867" cy="21.5312" rx="15.1738" ry="14.8215" fill="#EB9898"/>
<rect width="56.1361" height="28.0819" transform="matrix(0.940449 -0.339936 0.354277 0.93514 102.938 23.3033)" fill="#72A73E"/>
<ellipse cx="110.041" cy="40.6437" rx="2.55056" ry="2.49134" fill="#FFBD30"/>
<ellipse cx="22.7786" cy="9.03916" rx="22.7786" ry="9.03916" transform="matrix(0.970919 0.239407 -0.250218 0.96819 139.238 19.1879)" fill="#8EC7F5"/>
<ellipse cx="176.368" cy="12.2091" rx="2.59389" ry="2.53367" fill="#FFBD30"/>
<ellipse cx="184.46" cy="9.19948" rx="2.59389" ry="2.53367" fill="#FFBD30"/>
<path d="M4.02588 42.0826H10.039V45.0347C10.039 45.587 9.59133 46.0347 9.03905 46.0347H5.02588C4.47359 46.0347 4.02588 45.587 4.02588 45.0347V42.0826Z" fill="#1D2959"/>
<path d="M41.209 42.0825H47.2222V45.0346C47.2222 45.5869 46.7744 46.0346 46.2222 46.0346H42.209C41.6567 46.0346 41.209 45.5869 41.209 45.0346V42.0825Z" fill="#1D2959"/>
<path fill-rule="evenodd" clip-rule="evenodd" d="M28.8199 3.49769C27.647 3.04018 26.3658 2.67305 25.4362 2.69115C24.561 2.7082 23.3625 3.07871 22.2691 3.5245C21.6569 3.77407 21.0526 4.04927 20.4699 4.3605L20.4661 4.36258C19.7767 4.73699 18.9089 4.49126 18.528 3.81342C18.1471 3.13547 18.3971 2.28217 19.0865 1.90751C19.2873 1.79987 19.4908 1.69709 19.6955 1.597C20.0639 1.41695 20.5808 1.17631 21.1768 0.933333C22.3197 0.46734 23.9371 0.029537 25.3797 0.00143769C26.9149 -0.0284639 28.6472 0.412718 29.8715 0.890275C30.6354 1.18822 31.3885 1.51746 32.1124 1.90085L32.1133 1.90133C32.8061 2.26973 33.0641 3.12074 32.6895 3.8021C32.317 4.47965 31.439 4.7284 30.7524 4.36652C30.5769 4.27488 30.3988 4.18784 30.2199 4.10288C29.8701 3.93686 29.38 3.71612 28.8199 3.49769Z" fill="#8A4A38"/>
<path fill-rule="evenodd" clip-rule="evenodd" d="M19.2686 1.72633C18.6289 1.72633 18.1104 2.24489 18.1104 2.88456V3.59102C18.1104 4.12408 18.5425 4.55622 19.0755 4.55622H19.1016V8.20755H20.1123V4.53011H19.8629C20.5143 4.4033 21.0059 3.8297 21.0059 3.14127C21.0059 2.35982 20.3724 1.72633 19.591 1.72633H19.2686Z" fill="#F6EF3E"/>
<path fill-rule="evenodd" clip-rule="evenodd" d="M31.9428 1.72623C32.5825 1.72623 33.1011 2.24478 33.1011 2.88446V3.59092C33.1011 4.12398 32.6689 4.55611 32.1359 4.55611H32.1098V8.20744H31.0991V4.53H31.3485C30.6971 4.4032 30.2055 3.8296 30.2055 3.14117C30.2055 2.35972 30.839 1.72623 31.6204 1.72623H31.9428Z" fill="#F6EF3E"/>
<path d="M0 16.762C0 11.7914 4.02944 7.76199 9 7.76199H42.2528C47.2234 7.76199 51.2529 11.7914 51.2529 16.762V42.0821H0V16.762Z" fill="#8A4A38"/>
<ellipse cx="8.05329" cy="33.2472" rx="5.02106" ry="4.90602" fill="#EF9A9A"/>
<ellipse cx="4.809" cy="9.25666" rx="4.809" ry="9.25666" transform="matrix(0.705105 -0.709103 0.725462 0.688263 29.3711 30.4549)" fill="#93C6EB"/>
<rect width="16.3938" height="9.13788" transform="matrix(0.693231 -0.720716 0.736768 0.676145 19.7542 21.3154)" fill="#C2DEA3"/>
<rect width="8.33475" height="6.2458" rx="1" transform="matrix(0.73793 0.674877 -0.691986 0.721911 10.5845 13.261)" fill="#C49A6C"/>
<rect x="10.0393" y="23.05" width="7.06842" height="19.9996" fill="#F57B20"/>
<path d="M10.0393 6.46897H17.1077V23.7641C17.1077 25.7059 15.5153 27.28 13.5735 27.28C11.6318 27.28 10.0393 25.7059 10.0393 23.7641V6.46897Z" fill="#F6A725"/>
<rect x="9.05957" y="21.4783" width="9.03459" height="1.96354" fill="#F6EF3E"/>
<rect x="34.1519" y="23.05" width="7.06842" height="19.9996" fill="#F57B20"/>
<path d="M34.1519 6.46897H41.2203V23.7641C41.2203 25.7059 39.6278 27.28 37.6861 27.28C35.7443 27.28 34.1519 25.7059 34.1519 23.7641V6.46897Z" fill="#F6A725"/>
<rect x="33.1721" y="21.4783" width="9.03459" height="1.96354" fill="#F6EF3E"/>
<g filter="url(#filter0_d_32876_1211)">
<path d="M75.74 34.09C74.88 34.09 74.2 33.84 73.7 33.34C73.2 32.84 72.95 32.16 72.95 31.3V15.79C73.17 15.75 73.52 15.7 74 15.64C74.48 15.56 74.94 15.52 75.38 15.52C75.84 15.52 76.24 15.56 76.58 15.64C76.94 15.7 77.24 15.82 77.48 16C77.72 16.18 77.9 16.43 78.02 16.75C78.14 17.07 78.2 17.49 78.2 18.01V29.86H85.07C85.21 30.08 85.34 30.38 85.46 30.76C85.58 31.12 85.64 31.5 85.64 31.9C85.64 32.7 85.47 33.27 85.13 33.61C84.79 33.93 84.34 34.09 83.78 34.09H75.74ZM95.3579 34.48C94.1779 34.48 93.0779 34.32 92.0579 34C91.0579 33.66 90.1779 33.16 89.4179 32.5C88.6779 31.84 88.0879 31.01 87.6479 30.01C87.2279 29.01 87.0179 27.84 87.0179 26.5C87.0179 25.18 87.2279 24.05 87.6479 23.11C88.0879 22.15 88.6579 21.37 89.3579 20.77C90.0579 20.15 90.8579 19.7 91.7579 19.42C92.6579 19.12 93.5779 18.97 94.5179 18.97C95.5779 18.97 96.5379 19.13 97.3979 19.45C98.2779 19.77 99.0279 20.21 99.6479 20.77C100.288 21.33 100.778 22 101.118 22.78C101.478 23.56 101.658 24.41 101.658 25.33C101.658 26.01 101.468 26.53 101.088 26.89C100.708 27.25 100.178 27.48 99.4979 27.58L92.0879 28.69C92.3079 29.35 92.7579 29.85 93.4379 30.19C94.1179 30.51 94.8979 30.67 95.7779 30.67C96.5979 30.67 97.3679 30.57 98.0879 30.37C98.8279 30.15 99.4279 29.9 99.8879 29.62C100.208 29.82 100.478 30.1 100.698 30.46C100.918 30.82 101.028 31.2 101.028 31.6C101.028 32.5 100.608 33.17 99.7679 33.61C99.1279 33.95 98.4079 34.18 97.6079 34.3C96.8079 34.42 96.0579 34.48 95.3579 34.48ZM94.5179 22.69C94.0379 22.69 93.6179 22.77 93.2579 22.93C92.9179 23.09 92.6379 23.3 92.4179 23.56C92.1979 23.8 92.0279 24.08 91.9079 24.4C91.8079 24.7 91.7479 25.01 91.7279 25.33L96.8579 24.49C96.7979 24.09 96.5779 23.69 96.1979 23.29C95.8179 22.89 95.2579 22.69 94.5179 22.69ZM109.213 28.99C109.213 29.51 109.373 29.88 109.693 30.1C110.033 30.32 110.503 30.43 111.103 30.43C111.403 30.43 111.713 30.41 112.033 30.37C112.353 30.31 112.633 30.24 112.873 30.16C113.053 30.38 113.203 30.63 113.323 30.91C113.463 31.17 113.533 31.49 113.533 31.87C113.533 32.63 113.243 33.25 112.663 33.73C112.103 34.21 111.103 34.45 109.663 34.45C107.903 34.45 106.543 34.05 105.583 33.25C104.643 32.45 104.173 31.15 104.173 29.35V16.51C104.393 16.45 104.703 16.39 105.103 16.33C105.523 16.25 105.963 16.21 106.423 16.21C107.303 16.21 107.983 16.37 108.463 16.69C108.963 16.99 109.213 17.64 109.213 18.64V20.56H113.143C113.263 20.78 113.373 21.06 113.473 21.4C113.593 21.72 113.653 22.08 113.653 22.48C113.653 23.18 113.493 23.69 113.173 24.01C112.873 24.31 112.463 24.46 111.943 24.46H109.213V28.99ZM119.417 21.34C119.197 21.68 118.937 21.93 118.637 22.09C118.337 22.25 117.957 22.33 117.497 22.33C117.117 22.33 116.767 22.29 116.447 22.21C116.127 22.13 115.817 22.02 115.517 21.88C115.617 20.66 115.717 19.44 115.817 18.22C115.917 17 115.987 15.87 116.027 14.83C116.307 14.67 116.667 14.52 117.107 14.38C117.567 14.24 118.007 14.17 118.427 14.17C118.747 14.17 119.057 14.2 119.357 14.26C119.677 14.32 119.957 14.43 120.197 14.59C120.437 14.73 120.627 14.93 120.767 15.19C120.907 15.43 120.977 15.73 120.977 16.09C120.977 16.49 120.937 16.93 120.857 17.41C120.777 17.89 120.657 18.37 120.497 18.85C120.357 19.33 120.187 19.79 119.987 20.23C119.807 20.67 119.617 21.04 119.417 21.34ZM134.518 29.65C134.518 31.17 133.948 32.36 132.808 33.22C131.668 34.08 129.988 34.51 127.768 34.51C126.928 34.51 126.148 34.45 125.428 34.33C124.708 34.21 124.088 34.03 123.568 33.79C123.068 33.53 122.668 33.21 122.368 32.83C122.088 32.45 121.948 32 121.948 31.48C121.948 31 122.048 30.6 122.248 30.28C122.448 29.94 122.688 29.66 122.968 29.44C123.548 29.76 124.208 30.05 124.948 30.31C125.708 30.55 126.578 30.67 127.558 30.67C128.178 30.67 128.648 30.58 128.968 30.4C129.308 30.22 129.478 29.98 129.478 29.68C129.478 29.4 129.358 29.18 129.118 29.02C128.878 28.86 128.478 28.73 127.918 28.63L127.018 28.45C125.278 28.11 123.978 27.58 123.118 26.86C122.278 26.12 121.858 25.07 121.858 23.71C121.858 22.97 122.018 22.3 122.338 21.7C122.658 21.1 123.108 20.6 123.688 20.2C124.268 19.8 124.958 19.49 125.758 19.27C126.578 19.05 127.478 18.94 128.458 18.94C129.198 18.94 129.888 19 130.528 19.12C131.188 19.22 131.758 19.38 132.238 19.6C132.718 19.82 133.098 20.11 133.378 20.47C133.658 20.81 133.798 21.22 133.798 21.7C133.798 22.16 133.708 22.56 133.528 22.9C133.368 23.22 133.158 23.49 132.898 23.71C132.738 23.61 132.498 23.51 132.178 23.41C131.858 23.29 131.508 23.19 131.128 23.11C130.748 23.01 130.358 22.93 129.958 22.87C129.578 22.81 129.228 22.78 128.908 22.78C128.248 22.78 127.738 22.86 127.378 23.02C127.018 23.16 126.838 23.39 126.838 23.71C126.838 23.93 126.938 24.11 127.138 24.25C127.338 24.39 127.718 24.52 128.278 24.64L129.208 24.85C131.128 25.29 132.488 25.9 133.288 26.68C134.108 27.44 134.518 28.43 134.518 29.65ZM150.1 18.97C151.24 18.97 152.27 19.12 153.19 19.42C154.13 19.7 154.92 20.07 155.56 20.53C155.96 20.81 156.27 21.12 156.49 21.46C156.73 21.8 156.85 22.24 156.85 22.78V33.28C156.85 34.34 156.65 35.25 156.25 36.01C155.85 36.79 155.3 37.43 154.6 37.93C153.92 38.45 153.11 38.83 152.17 39.07C151.25 39.31 150.26 39.43 149.2 39.43C147.38 39.43 145.95 39.18 144.91 38.68C143.87 38.2 143.35 37.41 143.35 36.31C143.35 35.85 143.44 35.44 143.62 35.08C143.82 34.74 144.04 34.48 144.28 34.3C144.86 34.62 145.51 34.89 146.23 35.11C146.97 35.33 147.73 35.44 148.51 35.44C149.59 35.44 150.45 35.26 151.09 34.9C151.73 34.54 152.05 33.96 152.05 33.16V32.68C151.23 33.04 150.23 33.22 149.05 33.22C148.15 33.22 147.29 33.09 146.47 32.83C145.67 32.55 144.96 32.13 144.34 31.57C143.74 30.99 143.25 30.25 142.87 29.35C142.51 28.45 142.33 27.38 142.33 26.14C142.33 24.92 142.52 23.86 142.9 22.96C143.3 22.06 143.84 21.32 144.52 20.74C145.22 20.14 146.04 19.7 146.98 19.42C147.94 19.12 148.98 18.97 150.1 18.97ZM151.96 23.32C151.82 23.24 151.61 23.16 151.33 23.08C151.07 23 150.74 22.96 150.34 22.96C149.36 22.96 148.62 23.24 148.12 23.8C147.64 24.34 147.4 25.12 147.4 26.14C147.4 27.3 147.64 28.14 148.12 28.66C148.62 29.16 149.25 29.41 150.01 29.41C150.83 29.41 151.48 29.22 151.96 28.84V23.32ZM175.101 26.71C175.101 27.95 174.911 29.06 174.531 30.04C174.151 31 173.611 31.81 172.911 32.47C172.231 33.13 171.411 33.63 170.451 33.97C169.491 34.31 168.421 34.48 167.241 34.48C166.061 34.48 164.991 34.3 164.031 33.94C163.071 33.58 162.241 33.07 161.541 32.41C160.861 31.73 160.331 30.91 159.951 29.95C159.571 28.99 159.381 27.91 159.381 26.71C159.381 25.53 159.571 24.46 159.951 23.5C160.331 22.54 160.861 21.73 161.541 21.07C162.241 20.39 163.071 19.87 164.031 19.51C164.991 19.15 166.061 18.97 167.241 18.97C168.421 18.97 169.491 19.16 170.451 19.54C171.411 19.9 172.231 20.42 172.911 21.1C173.611 21.76 174.151 22.57 174.531 23.53C174.911 24.49 175.101 25.55 175.101 26.71ZM164.601 26.71C164.601 27.93 164.831 28.87 165.291 29.53C165.771 30.17 166.431 30.49 167.271 30.49C168.111 30.49 168.751 30.16 169.191 29.5C169.651 28.84 169.881 27.91 169.881 26.71C169.881 25.51 169.651 24.59 169.191 23.95C168.731 23.29 168.081 22.96 167.241 22.96C166.401 22.96 165.751 23.29 165.291 23.95C164.831 24.59 164.601 25.51 164.601 26.71ZM178.973 31.69C178.973 30.87 179.223 30.2 179.723 29.68C180.243 29.14 180.953 28.87 181.853 28.87C182.753 28.87 183.453 29.14 183.953 29.68C184.473 30.2 184.733 30.87 184.733 31.69C184.733 32.51 184.473 33.19 183.953 33.73C183.453 34.25 182.753 34.51 181.853 34.51C180.953 34.51 180.243 34.25 179.723 33.73C179.223 33.19 178.973 32.51 178.973 31.69ZM179.963 27.76C179.623 27.58 179.303 27.26 179.003 26.8C178.703 26.32 178.553 25.76 178.553 25.12C178.553 24.5 178.713 24.04 179.033 23.74C179.373 23.42 179.863 23.18 180.503 23.02L182.843 22.45C183.843 22.19 184.343 21.71 184.343 21.01C184.343 20.63 184.153 20.3 183.773 20.02C183.413 19.74 182.783 19.6 181.883 19.6C181.063 19.6 180.293 19.71 179.573 19.93C178.853 20.13 178.273 20.37 177.833 20.65C177.493 20.39 177.203 20.08 176.963 19.72C176.723 19.34 176.603 18.89 176.603 18.37C176.603 17.85 176.753 17.4 177.053 17.02C177.353 16.62 177.763 16.3 178.283 16.06C178.823 15.8 179.453 15.61 180.173 15.49C180.913 15.37 181.723 15.31 182.603 15.31C184.963 15.31 186.743 15.84 187.943 16.9C189.163 17.94 189.773 19.31 189.773 21.01C189.773 24.21 187.513 26.26 182.993 27.16L179.963 27.76Z" fill="#192144"/>
</g>
<defs>
<filter id="filter0_d_32876_1211" x="70.95" y="13.17" width="120.823" height="29.26" filterUnits="userSpaceOnUse" color-interpolation-filters="sRGB">
<feFlood flood-opacity="0" result="BackgroundImageFix"/>
<feColorMatrix in="SourceAlpha" type="matrix" values="0 0 0 0 0 0 0 0 0 0 0 0 0 0 0 0 0 0 127 0" result="hardAlpha"/>
<feOffset dy="1"/>
<feGaussianBlur stdDeviation="1"/>
<feComposite in2="hardAlpha" operator="out"/>
<feColorMatrix type="matrix" values="0 0 0 0 0 0 0 0 0 0 0 0 0 0 0 0 0 0 0.25 0"/>
<feBlend mode="normal" in2="BackgroundImageFix" result="effect1_dropShadow_32876_1211"/>
<feBlend mode="normal" in="SourceGraphic" in2="effect1_dropShadow_32876_1211" result="shape"/>
</filter>
</defs>
</svg>
