<svg width="130" height="30" viewBox="0 0 130 30" fill="none" xmlns="http://www.w3.org/2000/svg">
<g filter="url(#filter0_d_32879_297)">
<path d="M5.74 21.09C4.88 21.09 4.2 20.84 3.7 20.34C3.2 19.84 2.95 19.16 2.95 18.3V2.79C3.17 2.75 3.52 2.7 4 2.64C4.48 2.56 4.94 2.52 5.38 2.52C5.84 2.52 6.24 2.56 6.58 2.64C6.94 2.7 7.24 2.82 7.48 3C7.72 3.18 7.9 3.43 8.02 3.75C8.14 4.07 8.2 4.49 8.2 5.01V16.86H15.07C15.21 17.08 15.34 17.38 15.46 17.76C15.58 18.12 15.64 18.5 15.64 18.9C15.64 19.7 15.47 20.27 15.13 20.61C14.79 20.93 14.34 21.09 13.78 21.09H5.74ZM25.3579 21.48C24.1779 21.48 23.0779 21.32 22.0579 21C21.0579 20.66 20.1779 20.16 19.4179 19.5C18.6779 18.84 18.0879 18.01 17.6479 17.01C17.2279 16.01 17.0179 14.84 17.0179 13.5C17.0179 12.18 17.2279 11.05 17.6479 10.11C18.0879 9.15 18.6579 8.37 19.3579 7.77C20.0579 7.15 20.8579 6.7 21.7579 6.42C22.6579 6.12 23.5779 5.97 24.5179 5.97C25.5779 5.97 26.5379 6.13 27.3979 6.45C28.2779 6.77 29.0279 7.21 29.6479 7.77C30.2879 8.33 30.7779 9 31.1179 9.78C31.4779 10.56 31.6579 11.41 31.6579 12.33C31.6579 13.01 31.4679 13.53 31.0879 13.89C30.7079 14.25 30.1779 14.48 29.4979 14.58L22.0879 15.69C22.3079 16.35 22.7579 16.85 23.4379 17.19C24.1179 17.51 24.8979 17.67 25.7779 17.67C26.5979 17.67 27.3679 17.57 28.0879 17.37C28.8279 17.15 29.4279 16.9 29.8879 16.62C30.2079 16.82 30.4779 17.1 30.6979 17.46C30.9179 17.82 31.0279 18.2 31.0279 18.6C31.0279 19.5 30.6079 20.17 29.7679 20.61C29.1279 20.95 28.4079 21.18 27.6079 21.3C26.8079 21.42 26.0579 21.48 25.3579 21.48ZM24.5179 9.69C24.0379 9.69 23.6179 9.77 23.2579 9.93C22.9179 10.09 22.6379 10.3 22.4179 10.56C22.1979 10.8 22.0279 11.08 21.9079 11.4C21.8079 11.7 21.7479 12.01 21.7279 12.33L26.8579 11.49C26.7979 11.09 26.5779 10.69 26.1979 10.29C25.8179 9.89 25.2579 9.69 24.5179 9.69ZM39.2127 15.99C39.2127 16.51 39.3727 16.88 39.6927 17.1C40.0327 17.32 40.5027 17.43 41.1027 17.43C41.4027 17.43 41.7127 17.41 42.0327 17.37C42.3527 17.31 42.6327 17.24 42.8727 17.16C43.0527 17.38 43.2027 17.63 43.3227 17.91C43.4627 18.17 43.5327 18.49 43.5327 18.87C43.5327 19.63 43.2427 20.25 42.6627 20.73C42.1027 21.21 41.1027 21.45 39.6627 21.45C37.9027 21.45 36.5427 21.05 35.5827 20.25C34.6427 19.45 34.1727 18.15 34.1727 16.35V3.51C34.3927 3.45 34.7027 3.39 35.1027 3.33C35.5227 3.25 35.9627 3.21 36.4227 3.21C37.3027 3.21 37.9827 3.37 38.4627 3.69C38.9627 3.99 39.2127 4.64 39.2127 5.64V7.56H43.1427C43.2627 7.78 43.3727 8.06 43.4727 8.4C43.5927 8.72 43.6527 9.08 43.6527 9.48C43.6527 10.18 43.4927 10.69 43.1727 11.01C42.8727 11.31 42.4627 11.46 41.9427 11.46H39.2127V15.99ZM49.4174 8.34C49.1974 8.68 48.9374 8.93 48.6374 9.09C48.3374 9.25 47.9574 9.33 47.4974 9.33C47.1174 9.33 46.7674 9.29 46.4474 9.21C46.1274 9.13 45.8174 9.02 45.5174 8.88C45.6174 7.66 45.7174 6.44 45.8174 5.22C45.9174 4 45.9874 2.87 46.0274 1.83C46.3074 1.67 46.6674 1.52 47.1074 1.38C47.5674 1.24 48.0074 1.17 48.4274 1.17C48.7474 1.17 49.0574 1.2 49.3574 1.26C49.6774 1.32 49.9574 1.43 50.1974 1.59C50.4374 1.73 50.6274 1.93 50.7674 2.19C50.9074 2.43 50.9774 2.73 50.9774 3.09C50.9774 3.49 50.9374 3.93 50.8574 4.41C50.7774 4.89 50.6574 5.37 50.4974 5.85C50.3574 6.33 50.1874 6.79 49.9874 7.23C49.8074 7.67 49.6174 8.04 49.4174 8.34ZM64.5182 16.65C64.5182 18.17 63.9482 19.36 62.8082 20.22C61.6682 21.08 59.9882 21.51 57.7682 21.51C56.9282 21.51 56.1482 21.45 55.4282 21.33C54.7082 21.21 54.0882 21.03 53.5682 20.79C53.0682 20.53 52.6682 20.21 52.3682 19.83C52.0882 19.45 51.9482 19 51.9482 18.48C51.9482 18 52.0482 17.6 52.2482 17.28C52.4482 16.94 52.6882 16.66 52.9682 16.44C53.5482 16.76 54.2082 17.05 54.9482 17.31C55.7082 17.55 56.5782 17.67 57.5582 17.67C58.1782 17.67 58.6482 17.58 58.9682 17.4C59.3082 17.22 59.4782 16.98 59.4782 16.68C59.4782 16.4 59.3582 16.18 59.1182 16.02C58.8782 15.86 58.4782 15.73 57.9182 15.63L57.0182 15.45C55.2782 15.11 53.9782 14.58 53.1182 13.86C52.2782 13.12 51.8582 12.07 51.8582 10.71C51.8582 9.97 52.0182 9.3 52.3382 8.7C52.6582 8.1 53.1082 7.6 53.6882 7.2C54.2682 6.8 54.9582 6.49 55.7582 6.27C56.5782 6.05 57.4782 5.94 58.4582 5.94C59.1982 5.94 59.8882 6 60.5282 6.12C61.1882 6.22 61.7582 6.38 62.2382 6.6C62.7182 6.82 63.0982 7.11 63.3782 7.47C63.6582 7.81 63.7982 8.22 63.7982 8.7C63.7982 9.16 63.7082 9.56 63.5282 9.9C63.3682 10.22 63.1582 10.49 62.8982 10.71C62.7382 10.61 62.4982 10.51 62.1782 10.41C61.8582 10.29 61.5082 10.19 61.1282 10.11C60.7482 10.01 60.3582 9.93 59.9582 9.87C59.5782 9.81 59.2282 9.78 58.9082 9.78C58.2482 9.78 57.7382 9.86 57.3782 10.02C57.0182 10.16 56.8382 10.39 56.8382 10.71C56.8382 10.93 56.9382 11.11 57.1382 11.25C57.3382 11.39 57.7182 11.52 58.2782 11.64L59.2082 11.85C61.1282 12.29 62.4882 12.9 63.2882 13.68C64.1082 14.44 64.5182 15.43 64.5182 16.65ZM80.0997 5.97C81.2397 5.97 82.2697 6.12 83.1897 6.42C84.1297 6.7 84.9197 7.07 85.5597 7.53C85.9597 7.81 86.2697 8.12 86.4897 8.46C86.7297 8.8 86.8497 9.24 86.8497 9.78V20.28C86.8497 21.34 86.6497 22.25 86.2497 23.01C85.8497 23.79 85.2997 24.43 84.5997 24.93C83.9197 25.45 83.1097 25.83 82.1697 26.07C81.2497 26.31 80.2597 26.43 79.1997 26.43C77.3797 26.43 75.9497 26.18 74.9097 25.68C73.8697 25.2 73.3497 24.41 73.3497 23.31C73.3497 22.85 73.4397 22.44 73.6197 22.08C73.8197 21.74 74.0397 21.48 74.2797 21.3C74.8597 21.62 75.5097 21.89 76.2297 22.11C76.9697 22.33 77.7297 22.44 78.5097 22.44C79.5897 22.44 80.4497 22.26 81.0897 21.9C81.7297 21.54 82.0497 20.96 82.0497 20.16V19.68C81.2297 20.04 80.2297 20.22 79.0497 20.22C78.1497 20.22 77.2897 20.09 76.4697 19.83C75.6697 19.55 74.9597 19.13 74.3397 18.57C73.7397 17.99 73.2497 17.25 72.8697 16.35C72.5097 15.45 72.3297 14.38 72.3297 13.14C72.3297 11.92 72.5197 10.86 72.8997 9.96C73.2997 9.06 73.8397 8.32 74.5197 7.74C75.2197 7.14 76.0397 6.7 76.9797 6.42C77.9397 6.12 78.9797 5.97 80.0997 5.97ZM81.9597 10.32C81.8197 10.24 81.6097 10.16 81.3297 10.08C81.0697 10 80.7397 9.96 80.3397 9.96C79.3597 9.96 78.6197 10.24 78.1197 10.8C77.6397 11.34 77.3997 12.12 77.3997 13.14C77.3997 14.3 77.6397 15.14 78.1197 15.66C78.6197 16.16 79.2497 16.41 80.0097 16.41C80.8297 16.41 81.4797 16.22 81.9597 15.84V10.32ZM105.101 13.71C105.101 14.95 104.911 16.06 104.531 17.04C104.151 18 103.611 18.81 102.911 19.47C102.231 20.13 101.411 20.63 100.451 20.97C99.4912 21.31 98.4212 21.48 97.2412 21.48C96.0612 21.48 94.9912 21.3 94.0312 20.94C93.0712 20.58 92.2412 20.07 91.5412 19.41C90.8612 18.73 90.3312 17.91 89.9512 16.95C89.5712 15.99 89.3812 14.91 89.3812 13.71C89.3812 12.53 89.5712 11.46 89.9512 10.5C90.3312 9.54 90.8612 8.73 91.5412 8.07C92.2412 7.39 93.0712 6.87 94.0312 6.51C94.9912 6.15 96.0612 5.97 97.2412 5.97C98.4212 5.97 99.4912 6.16 100.451 6.54C101.411 6.9 102.231 7.42 102.911 8.1C103.611 8.76 104.151 9.57 104.531 10.53C104.911 11.49 105.101 12.55 105.101 13.71ZM94.6012 13.71C94.6012 14.93 94.8312 15.87 95.2912 16.53C95.7712 17.17 96.4312 17.49 97.2712 17.49C98.1112 17.49 98.7512 17.16 99.1912 16.5C99.6512 15.84 99.8812 14.91 99.8812 13.71C99.8812 12.51 99.6512 11.59 99.1912 10.95C98.7312 10.29 98.0812 9.96 97.2412 9.96C96.4012 9.96 95.7512 10.29 95.2912 10.95C94.8312 11.59 94.6012 12.51 94.6012 13.71ZM108.973 18.69C108.973 17.87 109.223 17.2 109.723 16.68C110.243 16.14 110.953 15.87 111.853 15.87C112.753 15.87 113.453 16.14 113.953 16.68C114.473 17.2 114.733 17.87 114.733 18.69C114.733 19.51 114.473 20.19 113.953 20.73C113.453 21.25 112.753 21.51 111.853 21.51C110.953 21.51 110.243 21.25 109.723 20.73C109.223 20.19 108.973 19.51 108.973 18.69ZM109.963 14.76C109.623 14.58 109.303 14.26 109.003 13.8C108.703 13.32 108.553 12.76 108.553 12.12C108.553 11.5 108.713 11.04 109.033 10.74C109.373 10.42 109.863 10.18 110.503 10.02L112.843 9.45C113.843 9.19 114.343 8.71 114.343 8.01C114.343 7.63 114.153 7.3 113.773 7.02C113.413 6.74 112.783 6.6 111.883 6.6C111.063 6.6 110.293 6.71 109.573 6.93C108.853 7.13 108.273 7.37 107.833 7.65C107.493 7.39 107.203 7.08 106.963 6.72C106.723 6.34 106.603 5.89 106.603 5.37C106.603 4.85 106.753 4.4 107.053 4.02C107.353 3.62 107.763 3.3 108.283 3.06C108.823 2.8 109.453 2.61 110.173 2.49C110.913 2.37 111.723 2.31 112.603 2.31C114.963 2.31 116.743 2.84 117.943 3.9C119.163 4.94 119.773 6.31 119.773 8.01C119.773 11.21 117.513 13.26 112.993 14.16L109.963 14.76Z" fill="#192144"/>
</g>
<defs>
<filter id="filter0_d_32879_297" x="0.949951" y="0.169998" width="120.823" height="29.26" filterUnits="userSpaceOnUse" color-interpolation-filters="sRGB">
<feFlood flood-opacity="0" result="BackgroundImageFix"/>
<feColorMatrix in="SourceAlpha" type="matrix" values="0 0 0 0 0 0 0 0 0 0 0 0 0 0 0 0 0 0 127 0" result="hardAlpha"/>
<feOffset dy="1"/>
<feGaussianBlur stdDeviation="1"/>
<feComposite in2="hardAlpha" operator="out"/>
<feColorMatrix type="matrix" values="0 0 0 0 0 0 0 0 0 0 0 0 0 0 0 0 0 0 0.25 0"/>
<feBlend mode="normal" in2="BackgroundImageFix" result="effect1_dropShadow_32879_297"/>
<feBlend mode="normal" in="SourceGraphic" in2="effect1_dropShadow_32879_297" result="shape"/>
</filter>
</defs>
</svg>
