<svg width="17" height="287" viewBox="0 0 17 287" fill="none" xmlns="http://www.w3.org/2000/svg">
<path d="M17 3C17 4.65685 15.6569 6 14 6C12.3431 6 11 4.65685 11 3C11 1.34315 12.3431 0 14 0C15.6569 0 17 1.34315 17 3Z" fill="#1D2E5B"/>
<path d="M17 284C17 285.657 15.6569 287 14 287C12.3431 287 11 285.657 11 284C11 282.343 12.3431 281 14 281C15.6569 281 17 282.343 17 284Z" fill="#1D2E5B"/>
<path d="M2 2H13V4H2V2Z" fill="#1D2E5B"/>
<path d="M0 283H12V285H0V283Z" fill="#1D2E5B"/>
<path d="M0 285L0 2H2L2 285H0Z" fill="#1D2E5B"/>
</svg>
