<svg width="200" height="50" viewBox="0 0 200 50" fill="none" xmlns="http://www.w3.org/2000/svg">
<path d="M93.9956 12.6437L53.8991 50L39.2637 2.10917L93.9956 12.6437Z" fill="#4D99D6"/>
<ellipse cx="94.7273" cy="33.897" rx="4.353" ry="4.25192" fill="#88BFEB"/>
<ellipse cx="111.867" cy="21.5314" rx="15.1738" ry="14.8214" fill="#EB9898"/>
<rect width="56.1361" height="28.0818" transform="matrix(0.940449 -0.339934 0.354279 0.93514 102.938 23.3034)" fill="#72A73E"/>
<ellipse cx="110.041" cy="40.6436" rx="2.55056" ry="2.49133" fill="#FFBD30"/>
<ellipse cx="22.7786" cy="9.03912" rx="22.7786" ry="9.03912" transform="matrix(0.97092 0.239406 -0.250219 0.968189 139.238 19.188)" fill="#8EC7F5"/>
<ellipse cx="176.368" cy="12.2097" rx="2.59389" ry="2.53366" fill="#FFBD30"/>
<ellipse cx="184.46" cy="9.19954" rx="2.59389" ry="2.53366" fill="#FFBD30"/>
<path d="M4.02588 42.0822H10.039V45.0343C10.039 45.5866 9.59133 46.0343 9.03905 46.0343H5.02588C4.47359 46.0343 4.02588 45.5866 4.02588 45.0343V42.0822Z" fill="#1D2959"/>
<path d="M41.209 42.0822H47.2222V45.0343C47.2222 45.5866 46.7744 46.0343 46.2222 46.0343H42.209C41.6567 46.0343 41.209 45.5866 41.209 45.0343V42.0822Z" fill="#1D2959"/>
<path fill-rule="evenodd" clip-rule="evenodd" d="M28.8199 3.49767C27.647 3.04017 26.3658 2.67304 25.4362 2.69114C24.561 2.70819 23.3625 3.0787 22.2691 3.52448C21.6569 3.77405 21.0526 4.04925 20.4699 4.36048L20.4661 4.36256C19.7767 4.73697 18.9089 4.49124 18.528 3.8134C18.1471 3.13545 18.3971 2.28216 19.0865 1.9075C19.2873 1.79986 19.4908 1.69708 19.6955 1.59699C20.0639 1.41695 20.5808 1.17631 21.1768 0.933328C22.3197 0.467338 23.9371 0.0295369 25.3797 0.00143768C26.9149 -0.0284637 28.6472 0.412716 29.8715 0.890271C30.6354 1.18821 31.3885 1.51746 32.1124 1.90084L32.1133 1.90132C32.8061 2.26972 33.0641 3.12072 32.6895 3.80208C32.317 4.47963 31.439 4.72838 30.7524 4.3665C30.5769 4.27486 30.3988 4.18782 30.2199 4.10286C29.8701 3.93684 29.38 3.71611 28.8199 3.49767Z" fill="#8A4A38"/>
<path fill-rule="evenodd" clip-rule="evenodd" d="M19.2686 1.72617C18.6289 1.72617 18.1104 2.24473 18.1104 2.8844V3.59085C18.1104 4.12391 18.5425 4.55604 19.0755 4.55604H19.1016V8.20735H20.1123V4.52993H19.8629C20.5143 4.40313 21.0059 3.82953 21.0059 3.1411C21.0059 2.35966 20.3724 1.72617 19.591 1.72617H19.2686Z" fill="#F6EF3E"/>
<path fill-rule="evenodd" clip-rule="evenodd" d="M31.9428 1.72617C32.5825 1.72617 33.1011 2.24473 33.1011 2.8844V3.59084C33.1011 4.1239 32.6689 4.55604 32.1359 4.55604H32.1098V8.20735H31.0991V4.52993H31.3485C30.6971 4.40312 30.2055 3.82953 30.2055 3.1411C30.2055 2.35966 30.839 1.72617 31.6204 1.72617H31.9428Z" fill="#F6EF3E"/>
<path d="M0 16.7622C0 11.7917 4.02944 7.76221 9 7.76221H42.2528C47.2234 7.76221 51.2529 11.7917 51.2529 16.7622V42.0822H0V16.7622Z" fill="#8A4A38"/>
<ellipse cx="8.05304" cy="33.2472" rx="5.02106" ry="4.906" fill="#EF9A9A"/>
<ellipse cx="4.80899" cy="9.25664" rx="4.80899" ry="9.25664" transform="matrix(0.705106 -0.709101 0.725463 0.688261 29.3711 30.4553)" fill="#93C6EB"/>
<rect width="16.3937" height="9.13786" transform="matrix(0.693232 -0.720714 0.73677 0.676144 19.7539 21.3155)" fill="#C2DEA3"/>
<rect width="8.33473" height="6.24579" rx="1" transform="matrix(0.737932 0.674875 -0.691988 0.721909 10.5842 13.2612)" fill="#C49A6C"/>
<rect x="10.0393" y="23.0503" width="7.06842" height="19.9995" fill="#F57B20"/>
<path d="M10.0393 6.46931H17.1077V23.7643C17.1077 25.7061 15.5153 27.2802 13.5735 27.2802V27.2802C11.6318 27.2802 10.0393 25.7061 10.0393 23.7643V6.46931Z" fill="#F6A725"/>
<rect x="9.05957" y="21.4786" width="9.03459" height="1.96354" fill="#F6EF3E"/>
<rect x="34.1519" y="23.0503" width="7.06842" height="19.9995" fill="#F57B20"/>
<path d="M34.1519 6.46931H41.2203V23.7643C41.2203 25.7061 39.6278 27.2802 37.6861 27.2802V27.2802C35.7443 27.2802 34.1519 25.7061 34.1519 23.7643V6.46931Z" fill="#F6A725"/>
<rect x="33.1721" y="21.4786" width="9.03459" height="1.96354" fill="#F6EF3E"/>
<g filter="url(#filter0_d_32864_858)">
<path d="M75.74 32.09C74.88 32.09 74.2 31.84 73.7 31.34C73.2 30.84 72.95 30.16 72.95 29.3V13.79C73.17 13.75 73.52 13.7 74 13.64C74.48 13.56 74.94 13.52 75.38 13.52C75.84 13.52 76.24 13.56 76.58 13.64C76.94 13.7 77.24 13.82 77.48 14C77.72 14.18 77.9 14.43 78.02 14.75C78.14 15.07 78.2 15.49 78.2 16.01V27.86H85.07C85.21 28.08 85.34 28.38 85.46 28.76C85.58 29.12 85.64 29.5 85.64 29.9C85.64 30.7 85.47 31.27 85.13 31.61C84.79 31.93 84.34 32.09 83.78 32.09H75.74ZM95.3579 32.48C94.1779 32.48 93.0779 32.32 92.0579 32C91.0579 31.66 90.1779 31.16 89.4179 30.5C88.6779 29.84 88.0879 29.01 87.6479 28.01C87.2279 27.01 87.0179 25.84 87.0179 24.5C87.0179 23.18 87.2279 22.05 87.6479 21.11C88.0879 20.15 88.6579 19.37 89.3579 18.77C90.0579 18.15 90.8579 17.7 91.7579 17.42C92.6579 17.12 93.5779 16.97 94.5179 16.97C95.5779 16.97 96.5379 17.13 97.3979 17.45C98.2779 17.77 99.0279 18.21 99.6479 18.77C100.288 19.33 100.778 20 101.118 20.78C101.478 21.56 101.658 22.41 101.658 23.33C101.658 24.01 101.468 24.53 101.088 24.89C100.708 25.25 100.178 25.48 99.4979 25.58L92.0879 26.69C92.3079 27.35 92.7579 27.85 93.4379 28.19C94.1179 28.51 94.8979 28.67 95.7779 28.67C96.5979 28.67 97.3679 28.57 98.0879 28.37C98.8279 28.15 99.4279 27.9 99.8879 27.62C100.208 27.82 100.478 28.1 100.698 28.46C100.918 28.82 101.028 29.2 101.028 29.6C101.028 30.5 100.608 31.17 99.7679 31.61C99.1279 31.95 98.4079 32.18 97.6079 32.3C96.8079 32.42 96.0579 32.48 95.3579 32.48ZM94.5179 20.69C94.0379 20.69 93.6179 20.77 93.2579 20.93C92.9179 21.09 92.6379 21.3 92.4179 21.56C92.1979 21.8 92.0279 22.08 91.9079 22.4C91.8079 22.7 91.7479 23.01 91.7279 23.33L96.8579 22.49C96.7979 22.09 96.5779 21.69 96.1979 21.29C95.8179 20.89 95.2579 20.69 94.5179 20.69ZM109.213 26.99C109.213 27.51 109.373 27.88 109.693 28.1C110.033 28.32 110.503 28.43 111.103 28.43C111.403 28.43 111.713 28.41 112.033 28.37C112.353 28.31 112.633 28.24 112.873 28.16C113.053 28.38 113.203 28.63 113.323 28.91C113.463 29.17 113.533 29.49 113.533 29.87C113.533 30.63 113.243 31.25 112.663 31.73C112.103 32.21 111.103 32.45 109.663 32.45C107.903 32.45 106.543 32.05 105.583 31.25C104.643 30.45 104.173 29.15 104.173 27.35V14.51C104.393 14.45 104.703 14.39 105.103 14.33C105.523 14.25 105.963 14.21 106.423 14.21C107.303 14.21 107.983 14.37 108.463 14.69C108.963 14.99 109.213 15.64 109.213 16.64V18.56H113.143C113.263 18.78 113.373 19.06 113.473 19.4C113.593 19.72 113.653 20.08 113.653 20.48C113.653 21.18 113.493 21.69 113.173 22.01C112.873 22.31 112.463 22.46 111.943 22.46H109.213V26.99ZM119.417 19.34C119.197 19.68 118.937 19.93 118.637 20.09C118.337 20.25 117.957 20.33 117.497 20.33C117.117 20.33 116.767 20.29 116.447 20.21C116.127 20.13 115.817 20.02 115.517 19.88C115.617 18.66 115.717 17.44 115.817 16.22C115.917 15 115.987 13.87 116.027 12.83C116.307 12.67 116.667 12.52 117.107 12.38C117.567 12.24 118.007 12.17 118.427 12.17C118.747 12.17 119.057 12.2 119.357 12.26C119.677 12.32 119.957 12.43 120.197 12.59C120.437 12.73 120.627 12.93 120.767 13.19C120.907 13.43 120.977 13.73 120.977 14.09C120.977 14.49 120.937 14.93 120.857 15.41C120.777 15.89 120.657 16.37 120.497 16.85C120.357 17.33 120.187 17.79 119.987 18.23C119.807 18.67 119.617 19.04 119.417 19.34ZM134.518 27.65C134.518 29.17 133.948 30.36 132.808 31.22C131.668 32.08 129.988 32.51 127.768 32.51C126.928 32.51 126.148 32.45 125.428 32.33C124.708 32.21 124.088 32.03 123.568 31.79C123.068 31.53 122.668 31.21 122.368 30.83C122.088 30.45 121.948 30 121.948 29.48C121.948 29 122.048 28.6 122.248 28.28C122.448 27.94 122.688 27.66 122.968 27.44C123.548 27.76 124.208 28.05 124.948 28.31C125.708 28.55 126.578 28.67 127.558 28.67C128.178 28.67 128.648 28.58 128.968 28.4C129.308 28.22 129.478 27.98 129.478 27.68C129.478 27.4 129.358 27.18 129.118 27.02C128.878 26.86 128.478 26.73 127.918 26.63L127.018 26.45C125.278 26.11 123.978 25.58 123.118 24.86C122.278 24.12 121.858 23.07 121.858 21.71C121.858 20.97 122.018 20.3 122.338 19.7C122.658 19.1 123.108 18.6 123.688 18.2C124.268 17.8 124.958 17.49 125.758 17.27C126.578 17.05 127.478 16.94 128.458 16.94C129.198 16.94 129.888 17 130.528 17.12C131.188 17.22 131.758 17.38 132.238 17.6C132.718 17.82 133.098 18.11 133.378 18.47C133.658 18.81 133.798 19.22 133.798 19.7C133.798 20.16 133.708 20.56 133.528 20.9C133.368 21.22 133.158 21.49 132.898 21.71C132.738 21.61 132.498 21.51 132.178 21.41C131.858 21.29 131.508 21.19 131.128 21.11C130.748 21.01 130.358 20.93 129.958 20.87C129.578 20.81 129.228 20.78 128.908 20.78C128.248 20.78 127.738 20.86 127.378 21.02C127.018 21.16 126.838 21.39 126.838 21.71C126.838 21.93 126.938 22.11 127.138 22.25C127.338 22.39 127.718 22.52 128.278 22.64L129.208 22.85C131.128 23.29 132.488 23.9 133.288 24.68C134.108 25.44 134.518 26.43 134.518 27.65ZM150.1 16.97C151.24 16.97 152.27 17.12 153.19 17.42C154.13 17.7 154.92 18.07 155.56 18.53C155.96 18.81 156.27 19.12 156.49 19.46C156.73 19.8 156.85 20.24 156.85 20.78V31.28C156.85 32.34 156.65 33.25 156.25 34.01C155.85 34.79 155.3 35.43 154.6 35.93C153.92 36.45 153.11 36.83 152.17 37.07C151.25 37.31 150.26 37.43 149.2 37.43C147.38 37.43 145.95 37.18 144.91 36.68C143.87 36.2 143.35 35.41 143.35 34.31C143.35 33.85 143.44 33.44 143.62 33.08C143.82 32.74 144.04 32.48 144.28 32.3C144.86 32.62 145.51 32.89 146.23 33.11C146.97 33.33 147.73 33.44 148.51 33.44C149.59 33.44 150.45 33.26 151.09 32.9C151.73 32.54 152.05 31.96 152.05 31.16V30.68C151.23 31.04 150.23 31.22 149.05 31.22C148.15 31.22 147.29 31.09 146.47 30.83C145.67 30.55 144.96 30.13 144.34 29.57C143.74 28.99 143.25 28.25 142.87 27.35C142.51 26.45 142.33 25.38 142.33 24.14C142.33 22.92 142.52 21.86 142.9 20.96C143.3 20.06 143.84 19.32 144.52 18.74C145.22 18.14 146.04 17.7 146.98 17.42C147.94 17.12 148.98 16.97 150.1 16.97ZM151.96 21.32C151.82 21.24 151.61 21.16 151.33 21.08C151.07 21 150.74 20.96 150.34 20.96C149.36 20.96 148.62 21.24 148.12 21.8C147.64 22.34 147.4 23.12 147.4 24.14C147.4 25.3 147.64 26.14 148.12 26.66C148.62 27.16 149.25 27.41 150.01 27.41C150.83 27.41 151.48 27.22 151.96 26.84V21.32ZM175.101 24.71C175.101 25.95 174.911 27.06 174.531 28.04C174.151 29 173.611 29.81 172.911 30.47C172.231 31.13 171.411 31.63 170.451 31.97C169.491 32.31 168.421 32.48 167.241 32.48C166.061 32.48 164.991 32.3 164.031 31.94C163.071 31.58 162.241 31.07 161.541 30.41C160.861 29.73 160.331 28.91 159.951 27.95C159.571 26.99 159.381 25.91 159.381 24.71C159.381 23.53 159.571 22.46 159.951 21.5C160.331 20.54 160.861 19.73 161.541 19.07C162.241 18.39 163.071 17.87 164.031 17.51C164.991 17.15 166.061 16.97 167.241 16.97C168.421 16.97 169.491 17.16 170.451 17.54C171.411 17.9 172.231 18.42 172.911 19.1C173.611 19.76 174.151 20.57 174.531 21.53C174.911 22.49 175.101 23.55 175.101 24.71ZM164.601 24.71C164.601 25.93 164.831 26.87 165.291 27.53C165.771 28.17 166.431 28.49 167.271 28.49C168.111 28.49 168.751 28.16 169.191 27.5C169.651 26.84 169.881 25.91 169.881 24.71C169.881 23.51 169.651 22.59 169.191 21.95C168.731 21.29 168.081 20.96 167.241 20.96C166.401 20.96 165.751 21.29 165.291 21.95C164.831 22.59 164.601 23.51 164.601 24.71ZM178.973 29.69C178.973 28.87 179.223 28.2 179.723 27.68C180.243 27.14 180.953 26.87 181.853 26.87C182.753 26.87 183.453 27.14 183.953 27.68C184.473 28.2 184.733 28.87 184.733 29.69C184.733 30.51 184.473 31.19 183.953 31.73C183.453 32.25 182.753 32.51 181.853 32.51C180.953 32.51 180.243 32.25 179.723 31.73C179.223 31.19 178.973 30.51 178.973 29.69ZM179.963 25.76C179.623 25.58 179.303 25.26 179.003 24.8C178.703 24.32 178.553 23.76 178.553 23.12C178.553 22.5 178.713 22.04 179.033 21.74C179.373 21.42 179.863 21.18 180.503 21.02L182.843 20.45C183.843 20.19 184.343 19.71 184.343 19.01C184.343 18.63 184.153 18.3 183.773 18.02C183.413 17.74 182.783 17.6 181.883 17.6C181.063 17.6 180.293 17.71 179.573 17.93C178.853 18.13 178.273 18.37 177.833 18.65C177.493 18.39 177.203 18.08 176.963 17.72C176.723 17.34 176.603 16.89 176.603 16.37C176.603 15.85 176.753 15.4 177.053 15.02C177.353 14.62 177.763 14.3 178.283 14.06C178.823 13.8 179.453 13.61 180.173 13.49C180.913 13.37 181.723 13.31 182.603 13.31C184.963 13.31 186.743 13.84 187.943 14.9C189.163 15.94 189.773 17.31 189.773 19.01C189.773 22.21 187.513 24.26 182.993 25.16L179.963 25.76Z" fill="white"/>
</g>
<defs>
<filter id="filter0_d_32864_858" x="70.95" y="11.17" width="120.823" height="29.26" filterUnits="userSpaceOnUse" color-interpolation-filters="sRGB">
<feFlood flood-opacity="0" result="BackgroundImageFix"/>
<feColorMatrix in="SourceAlpha" type="matrix" values="0 0 0 0 0 0 0 0 0 0 0 0 0 0 0 0 0 0 127 0" result="hardAlpha"/>
<feOffset dy="1"/>
<feGaussianBlur stdDeviation="1"/>
<feComposite in2="hardAlpha" operator="out"/>
<feColorMatrix type="matrix" values="0 0 0 0 0 0 0 0 0 0 0 0 0 0 0 0 0 0 0.25 0"/>
<feBlend mode="normal" in2="BackgroundImageFix" result="effect1_dropShadow_32864_858"/>
<feBlend mode="normal" in="SourceGraphic" in2="effect1_dropShadow_32864_858" result="shape"/>
</filter>
</defs>
</svg>
